<svg width="22" height="16" viewBox="0 0 22 16" fill="none" xmlns="http://www.w3.org/2000/svg">
<path fill-rule="evenodd" clip-rule="evenodd" d="M0 1.45455C0 0.651222 0.651222 0 1.45455 0H9.45455C10.2579 0 10.9091 0.651222 10.9091 1.45455C10.9091 2.25787 10.2579 2.90909 9.45455 2.90909H1.45455C0.651222 2.90909 0 2.25787 0 1.45455Z" fill="#51459E"/>
<path fill-rule="evenodd" clip-rule="evenodd" d="M0 8.00142C0 7.1981 0.651222 6.54688 1.45455 6.54688H19.6364C20.4397 6.54688 21.0909 7.1981 21.0909 8.00142C21.0909 8.80474 20.4397 9.45597 19.6364 9.45597H1.45455C0.651222 9.45597 0 8.80474 0 8.00142Z" fill="#51459E"/>
<path fill-rule="evenodd" clip-rule="evenodd" d="M0 14.5444C0 13.7411 0.651222 13.0898 1.45455 13.0898H16.7273C17.5306 13.0898 18.1818 13.7411 18.1818 14.5444C18.1818 15.3477 17.5306 15.9989 16.7273 15.9989H1.45455C0.651222 15.9989 0 15.3477 0 14.5444Z" fill="#51459E"/>
</svg>
