<svg width="16" height="16" viewBox="0 0 16 16" fill="none" xmlns="http://www.w3.org/2000/svg">
<path d="M8 16C5.78756 16 3.88 15.2089 2.33244 13.648C0.784889 12.0916 0 10.1911 0 8C0 5.78844 0.785778 3.88089 2.33511 2.33333C3.88178 0.785778 5.78844 0 8 0C10.192 0 12.0924 0.784889 13.648 2.33244C15.208 3.88089 16 5.78844 16 8C16 10.1911 15.2089 12.0924 13.6498 13.6507C12.0933 15.2089 10.1929 16 8 16ZM8 1.77778C6.25244 1.77778 4.81067 2.37067 3.59289 3.59111C2.37156 4.81067 1.77778 6.25244 1.77778 8C1.77778 9.728 2.37156 11.1662 3.59378 12.3956C4.81333 13.6249 6.25422 14.2222 8 14.2222C9.72711 14.2222 11.1644 13.624 12.392 12.3938C13.624 11.1636 14.2222 9.72533 14.2222 8C14.2222 6.25511 13.6249 4.81333 12.3956 3.59378C11.1662 2.37156 9.72889 1.77778 8 1.77778ZM5.33333 10.2222C4.10756 10.2222 3.11111 9.22578 3.11111 8C3.11111 6.77422 4.10756 5.77778 5.33333 5.77778C6.55911 5.77778 7.55556 6.77422 7.55556 8C7.55556 9.22578 6.55911 10.2222 5.33333 10.2222ZM5.33333 6.66667C4.59822 6.66667 4 7.26489 4 8C4 8.73511 4.59822 9.33333 5.33333 9.33333C6.06844 9.33333 6.66667 8.73511 6.66667 8C6.66667 7.26489 6.06844 6.66667 5.33333 6.66667ZM10.6667 10.2222C9.44089 10.2222 8.44444 9.22578 8.44444 8C8.44444 6.77422 9.44089 5.77778 10.6667 5.77778C11.8924 5.77778 12.8889 6.77422 12.8889 8C12.8889 9.22578 11.8924 10.2222 10.6667 10.2222Z" fill="#C7C7D2"/>
</svg>
