<svg width="16" height="14" viewBox="0 0 16 14" fill="none" xmlns="http://www.w3.org/2000/svg">
<path d="M11.4996 10.951C10.4181 10.951 9.22635 11.3657 8.13873 11.9006C6.39048 12.7606 5.51635 13.1911 5.08585 12.9165C4.65535 12.6429 4.73673 11.7928 4.90035 10.0935L4.9371 9.70703" stroke="#C7C7D2" stroke-width="2" stroke-linecap="round"/>
<path d="M11.5 9.95198C10.9477 9.95198 10.5 10.3997 10.5 10.952C10.5 11.5043 10.9477 11.952 11.5 11.952V9.95198ZM3 2H13V0H3V2ZM14 3V8.95198H16V3H14ZM2 8.95198V3H0V8.95198H2ZM13 9.95198H11.5V11.952H13V9.95198ZM4.5 9.95198H3V11.952H4.5V9.95198ZM0 8.95198C0 10.6088 1.34315 11.952 3 11.952V9.95198C2.44772 9.95198 2 9.50426 2 8.95198H0ZM14 8.95198C14 9.50426 13.5523 9.95198 13 9.95198V11.952C14.6569 11.952 16 10.6088 16 8.95198H14ZM13 2C13.5523 2 14 2.44772 14 3H16C16 1.34315 14.6569 0 13 0V2ZM3 0C1.34314 0 0 1.34315 0 3H2C2 2.44772 2.44772 2 3 2V0Z" fill="#C7C7D2"/>
</svg>
