<svg width="16" height="14" viewBox="0 0 16 14" fill="none" xmlns="http://www.w3.org/2000/svg">
<path d="M14.5462 0H4.36466C3.9789 0 3.60894 0.163889 3.33617 0.455612C3.0634 0.747335 2.91016 1.143 2.91016 1.55556V3.11111H4.36466V1.55556H14.5462V9.33333H13.0917V10.8889H14.5462C14.9319 10.8889 15.3019 10.725 15.5747 10.4333C15.8474 10.1416 16.0007 9.74589 16.0007 9.33333V1.55556C16.0007 1.143 15.8474 0.747335 15.5747 0.455612C15.3019 0.163889 14.9319 0 14.5462 0Z" fill="#C7C7D2"/>
<path d="M11.636 3.10938H1.4545C1.06874 3.10938 0.698786 3.27326 0.426014 3.56499C0.153242 3.85671 0 4.25237 0 4.66493V12.4427C0 12.8553 0.153242 13.2509 0.426014 13.5427C0.698786 13.8344 1.06874 13.9983 1.4545 13.9983H11.636C12.0218 13.9983 12.3917 13.8344 12.6645 13.5427C12.9373 13.2509 13.0905 12.8553 13.0905 12.4427V4.66493C13.0905 4.25237 12.9373 3.85671 12.6645 3.56499C12.3917 3.27326 12.0218 3.10938 11.636 3.10938ZM1.4545 12.4427V4.66493H11.636V12.4427H1.4545Z" fill="#C7C7D2"/>
</svg>
