<svg width="20" height="18" viewBox="0 0 20 18" fill="none" xmlns="http://www.w3.org/2000/svg">
<g id="Group 237284">
<g id="Group">
<g id="Group 237287">
<path id="Vector" d="M10.2471 4.73438V9.44323C10.2471 9.83563 10.5649 10.1517 10.9555 10.1517H13.9467" stroke="#24D6A5" stroke-width="2" stroke-linecap="round"/>
<path id="Vector_2" d="M2.39746 9.00257C2.39746 4.59024 5.98592 1 10.3983 1C14.8106 1 18.4008 4.59024 18.4008 9.00257C18.4008 13.4149 14.8106 17.0051 10.4 17.0069C7.74375 17.0069 5.26681 15.6876 3.77354 13.4788" stroke="#24D6A5" stroke-width="2"/>
<path id="Polygon 30" d="M3.46424 10C3.07934 10.6667 2.11709 10.6667 1.73219 10L0.866163 8.5C0.481263 7.83333 0.962388 7 1.73219 7L3.46424 7C4.23404 7 4.71516 7.83333 4.33026 8.5L3.46424 10Z" fill="#24D6A5"/>
</g>
</g>
</g>
</svg>
