<svg width="16" height="16" viewBox="0 0 16 16" fill="none" xmlns="http://www.w3.org/2000/svg">
<path d="M8.70809 0.292786C8.52027 0.105315 8.26557 0 8 0C7.73443 0 7.47973 0.105315 7.29191 0.292786L0.281144 7.29279C0.0987053 7.48139 -0.00224406 7.73399 3.78608e-05 7.99619C0.00231978 8.25838 0.107651 8.5092 0.293344 8.6946C0.479037 8.88001 0.730235 8.98518 0.992835 8.98746C1.25544 8.98974 1.50843 8.88894 1.69732 8.70679L1.99077 8.41379V14.9998C1.99077 15.265 2.09629 15.5194 2.28411 15.7069C2.47194 15.8944 2.72668 15.9998 2.99231 15.9998H4.99538C5.26101 15.9998 5.51575 15.8944 5.70358 15.7069C5.8914 15.5194 5.99692 15.265 5.99692 14.9998V12.9998C5.99692 12.7346 6.10244 12.4802 6.29027 12.2927C6.47809 12.1051 6.73284 11.9998 6.99846 11.9998H9.00154C9.26716 11.9998 9.52191 12.1051 9.70973 12.2927C9.89756 12.4802 10.0031 12.7346 10.0031 12.9998V14.9998C10.0031 15.265 10.1086 15.5194 10.2964 15.7069C10.4842 15.8944 10.739 15.9998 11.0046 15.9998H13.0077C13.2733 15.9998 13.5281 15.8944 13.7159 15.7069C13.9037 15.5194 14.0092 15.265 14.0092 14.9998V8.41379L14.3027 8.70679C14.4916 8.88894 14.7446 8.98974 15.0072 8.98746C15.2698 8.98518 15.521 8.88001 15.7067 8.6946C15.8923 8.5092 15.9977 8.25838 16 7.99619C16.0022 7.73399 15.9013 7.48139 15.7189 7.29279L8.70809 0.292786Z" fill="white"/>
</svg>
