<svg width="14" height="16" viewBox="0 0 14 16" fill="none" xmlns="http://www.w3.org/2000/svg">
<g id="Group 237222">
<path id="Vector" d="M10.0489 15.1273C10.0489 15.3587 9.96135 15.5807 9.80545 15.7444C9.64954 15.9081 9.43809 16 9.2176 16H4.78382C4.56334 16 4.35188 15.9081 4.19598 15.7444C4.04007 15.5807 3.95248 15.3587 3.95248 15.1273C3.95248 14.8958 4.04007 14.6738 4.19598 14.5102C4.35188 14.3465 4.56334 14.2545 4.78382 14.2545H9.2176C9.43809 14.2545 9.64954 14.3465 9.80545 14.5102C9.96135 14.6738 10.0489 14.8958 10.0489 15.1273ZM13.6736 12.3631C13.5534 12.5853 13.379 12.7699 13.1683 12.8978C12.9576 13.0258 12.7182 13.0924 12.4748 13.0909H1.52658C1.28316 13.0924 1.04375 13.0258 0.833036 12.8978C0.62232 12.7699 0.447915 12.5852 0.327795 12.363C0.206498 12.1408 0.142963 11.889 0.143559 11.6329C0.144155 11.3768 0.20886 11.1253 0.33119 10.9037C0.725381 10.1917 1.19543 8.83244 1.19543 6.4V6.10909C1.19359 4.49085 1.80416 2.93812 2.89283 1.79245C3.98149 0.646784 5.45908 0.00202406 7.00057 0L7.04491 0.000145513C10.2219 0.0249455 12.8065 2.79491 12.8065 6.17484V6.4C12.8065 8.83258 13.2762 10.192 13.6703 10.904C13.7926 11.1256 13.8573 11.377 13.8578 11.6331C13.8584 11.8891 13.7949 12.1409 13.6736 12.3631ZM12.0141 11.3455C11.3014 9.77818 11.1439 7.82204 11.1439 6.4V6.17484C11.1439 3.75025 9.29956 1.7632 7.03258 1.7456C7.02203 1.74551 7.01147 1.74547 7.00092 1.74545C6.45597 1.74641 5.91653 1.86003 5.41341 2.07984C4.91028 2.29965 4.45333 2.62134 4.06863 3.02654C3.68394 3.43175 3.37903 3.91252 3.17133 4.44143C2.96363 4.97033 2.85719 5.537 2.8581 6.10909V6.4C2.8581 7.82204 2.70042 9.77825 1.98728 11.3455H12.0141Z" fill="#4E4E4E"/>
</g>
</svg>
