<svg width="16" height="16" viewBox="0 0 16 16" fill="none" xmlns="http://www.w3.org/2000/svg">
<path d="M8 16C5.78756 16 3.88 15.2089 2.33244 13.648C0.784889 12.0916 0 10.1911 0 8C0 5.78844 0.785778 3.88089 2.33511 2.33333C3.88178 0.785778 5.78844 0 8 0C10.192 0 12.0924 0.784889 13.648 2.33244C15.208 3.88089 16 5.78844 16 8C16 10.1911 15.2089 12.0924 13.6498 13.6507C12.0933 15.2089 10.1929 16 8 16ZM8 1.77778C6.25244 1.77778 4.81067 2.37067 3.59289 3.59111C2.37156 4.81067 1.77778 6.25244 1.77778 8C1.77778 9.728 2.37156 11.1662 3.59378 12.3956C4.81333 13.6249 6.25422 14.2222 8 14.2222C9.72711 14.2222 11.1644 13.624 12.392 12.3938C13.624 11.1636 14.2222 9.72533 14.2222 8C14.2222 6.25511 13.6249 4.81333 12.3956 3.59378C11.1662 2.37156 9.72889 1.77778 8 1.77778Z" fill="#C7C7D2"/>
<circle cx="8" cy="8" r="3" stroke="#C7C7D2" stroke-width="2"/>
</svg>
