<svg width="16" height="16" viewBox="0 0 16 16" fill="none" xmlns="http://www.w3.org/2000/svg">
<path d="M15.7646 3.55609C15.6218 3.28997 15.4174 3.06821 15.1712 2.91242C14.9251 2.75663 14.6456 2.67215 14.36 2.6672H3.78416L3.30495 0.658302C3.25653 0.464379 3.14851 0.293806 2.99848 0.174364C2.84845 0.0549213 2.66524 -0.0063527 2.47871 0.000521318H0.826237C0.607105 0.000521318 0.396949 0.0941722 0.241999 0.260872C0.0870497 0.427572 0 0.653665 0 0.889414C0 1.12516 0.0870497 1.35126 0.241999 1.51796C0.396949 1.68466 0.607105 1.77831 0.826237 1.77831H1.85077L4.13118 10.8983C4.1796 11.0923 4.28762 11.2628 4.43765 11.3823C4.58769 11.5017 4.77089 11.563 4.95742 11.5561H12.3936C12.5461 11.5556 12.6956 11.5097 12.8254 11.4234C12.9552 11.3371 13.0602 11.2138 13.1289 11.0672L15.839 5.2361C15.9564 4.97122 16.0111 4.67918 15.9981 4.38604C15.9852 4.09289 15.9049 3.80776 15.7646 3.55609ZM11.8813 9.77834H5.58536L4.2386 4.44498H14.36L11.8813 9.77834Z" fill="#C7C7D2"/>
<path d="M4.54404 16.0026C5.22852 16.0026 5.7834 15.4057 5.7834 14.6693C5.7834 13.9329 5.22852 13.3359 4.54404 13.3359C3.85957 13.3359 3.30469 13.9329 3.30469 14.6693C3.30469 15.4057 3.85957 16.0026 4.54404 16.0026Z" fill="#C7C7D2"/>
<path d="M12.8067 16.0026C13.4912 16.0026 14.0461 15.4057 14.0461 14.6693C14.0461 13.9329 13.4912 13.3359 12.8067 13.3359C12.1223 13.3359 11.5674 13.9329 11.5674 14.6693C11.5674 15.4057 12.1223 16.0026 12.8067 16.0026Z" fill="#C7C7D2"/>
</svg>
