<svg width="18" height="18" viewBox="0 0 18 18" fill="none" xmlns="http://www.w3.org/2000/svg">
<g id="Group 237289">
<g id="Group">
<path id="Vector (Stroke)" fill-rule="evenodd" clip-rule="evenodd" d="M1.02113 1.02113C1.67496 0.367313 2.56173 0 3.48637 0H12.396C13.3206 0 14.2074 0.367313 14.8612 1.02113C15.515 1.67496 15.8824 2.56173 15.8824 3.48637V4.66554C15.8824 5.20039 15.4488 5.63397 14.9139 5.63397C14.3791 5.63397 13.9455 5.20039 13.9455 4.66554V3.48637C13.9455 3.07542 13.7822 2.6813 13.4916 2.39071C13.2011 2.10012 12.8069 1.93687 12.396 1.93687H3.48637C3.07542 1.93687 2.6813 2.10012 2.39071 2.39071C2.10012 2.6813 1.93687 3.07542 1.93687 3.48637V12.396C1.93687 12.8069 2.10012 13.2011 2.39071 13.4916C2.6813 13.7822 3.07542 13.9455 3.48637 13.9455H4.66554C5.20039 13.9455 5.63397 14.3791 5.63397 14.9139C5.63397 15.4488 5.20039 15.8824 4.66554 15.8824H3.48637C2.56173 15.8824 1.67496 15.515 1.02113 14.8612C0.367313 14.2074 0 13.3206 0 12.396V3.48637C0 2.56173 0.367313 1.67496 1.02113 1.02113Z" fill="#F36643"/>
<path id="Vector (Stroke)_2" fill-rule="evenodd" clip-rule="evenodd" d="M16.1391 7.1537C17.3305 8.34511 17.9998 9.96101 17.9998 11.6459C17.9998 13.3308 17.3305 14.9467 16.1391 16.1381C14.9477 17.3295 13.3318 17.9989 11.6469 17.9989C9.96198 17.9989 8.34609 17.3295 7.15468 16.1381C5.96327 14.9467 5.29395 13.3308 5.29395 11.6459C5.29395 9.96101 5.96327 8.34511 7.15468 7.1537C8.34609 5.96229 9.96198 5.29297 11.6469 5.29297C13.3318 5.29297 14.9477 5.96229 16.1391 7.1537ZM14.8179 8.47494C15.6589 9.31593 16.1313 10.4566 16.1313 11.6459C16.1313 12.8353 15.6589 13.9759 14.8179 14.8169C13.9769 15.6579 12.8362 16.1303 11.6469 16.1303C10.4575 16.1303 9.31691 15.6579 8.47592 14.8169C7.63492 13.9759 7.16246 12.8353 7.16246 11.6459C7.16246 10.4566 7.63492 9.31593 8.47592 8.47494C9.31691 7.63395 10.4575 7.16148 11.6469 7.16148C12.8362 7.16148 13.9769 7.63395 14.8179 8.47494Z" fill="#F36643"/>
</g>
<g id="Group 237288">
<path id="Line 114 (Stroke)" fill-rule="evenodd" clip-rule="evenodd" d="M11.6472 9.53125C12.232 9.53125 12.7061 9.92629 12.7061 10.4136L12.7061 11.8254C12.7061 12.3127 12.232 12.7077 11.6472 12.7077C11.0625 12.7077 10.5884 12.3127 10.5884 11.8254L10.5884 10.4136C10.5884 9.92629 11.0625 9.53125 11.6472 9.53125Z" fill="#F36643"/>
<path id="Line 115 (Stroke)" fill-rule="evenodd" clip-rule="evenodd" d="M10.5879 11.6487C10.5879 11.0639 10.9829 10.5898 11.4702 10.5898H12.882C13.3693 10.5898 13.7644 11.0639 13.7644 11.6487C13.7644 12.2334 13.3693 12.7075 12.882 12.7075H11.4702C10.9829 12.7075 10.5879 12.2334 10.5879 11.6487Z" fill="#F36643"/>
</g>
</g>
</svg>
