<svg width="16" height="16" viewBox="0 0 16 16" fill="none" xmlns="http://www.w3.org/2000/svg">
<g id="Group 237185">
<g id="Group">
<path id="Vector" d="M5.6658 7.22222C7.38402 7.22222 8.77691 5.82933 8.77691 4.11111C8.77691 2.39289 7.38402 1 5.6658 1C3.94758 1 2.55469 2.39289 2.55469 4.11111C2.55469 5.82933 3.94758 7.22222 5.6658 7.22222Z" stroke="#3575FF" stroke-width="2" stroke-linecap="round" stroke-linejoin="round"/>
<path id="Vector_2" d="M1 14.9987V13.4431C1 12.618 1.32778 11.8267 1.91122 11.2433C2.49467 10.6598 3.28599 10.332 4.11111 10.332H7.22222C8.04734 10.332 8.83866 10.6598 9.42211 11.2433C10.0056 11.8267 10.3333 12.618 10.3333 13.4431V14.9987" stroke="#3575FF" stroke-width="2" stroke-linecap="round" stroke-linejoin="round"/>
<path id="Vector_3" d="M11.1113 1.10156C11.7805 1.27291 12.3737 1.66211 12.7973 2.2078C13.2208 2.7535 13.4508 3.42465 13.4508 4.11545C13.4508 4.80625 13.2208 5.4774 12.7973 6.0231C12.3737 6.56879 11.7805 6.958 11.1113 7.12934" stroke="#3575FF" stroke-width="2" stroke-linecap="round" stroke-linejoin="round"/>
<path id="Vector_4" d="M14.9993 14.9992V13.4437C14.9954 12.757 14.7644 12.091 14.3423 11.5493C13.9203 11.0077 13.3309 10.6209 12.666 10.4492" stroke="#3575FF" stroke-width="2" stroke-linecap="round" stroke-linejoin="round"/>
</g>
</g>
</svg>
